<mxfile host="app.diagrams.net" modified="2024-11-01T01:20:49.546Z" agent="Mozilla/5.0 (Windows NT 10.0; Win64; x64) AppleWebKit/537.36 (KHTML, like Gecko) Chrome/130.0.0.0 Safari/537.36" etag="ruk-jIS2YvE98x2qNIqJ" version="21.3.8" type="github">
  <diagram name="Page-1" id="42789a77-a242-8287-6e28-9cd8cfd52e62">
    <mxGraphModel dx="974" dy="1227" grid="1" gridSize="10" guides="1" tooltips="1" connect="1" arrows="1" fold="1" page="1" pageScale="1" pageWidth="1100" pageHeight="850" background="none" math="0" shadow="0">
      <root>
        <mxCell id="0" />
        <mxCell id="1" parent="0" />
        <mxCell id="1ea317790d2ca983-13" value="5" style="edgeStyle=none;rounded=1;html=1;labelBackgroundColor=none;startArrow=none;startFill=0;startSize=5;endArrow=classicThin;endFill=1;endSize=5;jettySize=auto;orthogonalLoop=1;strokeColor=#B3B3B3;strokeWidth=1;fontFamily=Verdana;fontSize=12;exitX=0;exitY=0.5;exitDx=0;exitDy=0;" parent="1" source="1ea317790d2ca983-1" target="1ea317790d2ca983-9" edge="1">
          <mxGeometry relative="1" as="geometry">
            <mxPoint x="450" y="140" as="sourcePoint" />
          </mxGeometry>
        </mxCell>
        <mxCell id="1ea317790d2ca983-1" value="Peligros" style="ellipse;whiteSpace=wrap;html=1;rounded=0;shadow=1;comic=0;labelBackgroundColor=none;strokeWidth=1;fontFamily=Verdana;fontSize=12;align=center;" parent="1" vertex="1">
          <mxGeometry x="450" y="60" width="90" height="60" as="geometry" />
        </mxCell>
        <mxCell id="1ea317790d2ca983-19" value="3" style="edgeStyle=none;rounded=1;html=1;labelBackgroundColor=none;startArrow=none;startFill=0;startSize=5;endArrow=classicThin;endFill=1;endSize=5;jettySize=auto;orthogonalLoop=1;strokeColor=#B3B3B3;strokeWidth=1;fontFamily=Verdana;fontSize=12" parent="1" source="1ea317790d2ca983-9" target="1ea317790d2ca983-10" edge="1">
          <mxGeometry x="0.0041" relative="1" as="geometry">
            <mxPoint as="offset" />
          </mxGeometry>
        </mxCell>
        <mxCell id="1ea317790d2ca983-9" value="La Aparecida" style="ellipse;whiteSpace=wrap;html=1;rounded=0;shadow=1;comic=0;labelBackgroundColor=none;strokeWidth=1;fontFamily=Verdana;fontSize=12;align=center;" parent="1" vertex="1">
          <mxGeometry x="275" y="120" width="75" height="50" as="geometry" />
        </mxCell>
        <mxCell id="1ea317790d2ca983-20" value="2" style="edgeStyle=none;rounded=1;html=1;labelBackgroundColor=none;startArrow=none;startFill=0;startSize=5;endArrow=classicThin;endFill=1;endSize=5;jettySize=auto;orthogonalLoop=1;strokeColor=#B3B3B3;strokeWidth=1;fontFamily=Verdana;fontSize=12" parent="1" source="1ea317790d2ca983-10" target="1ea317790d2ca983-11" edge="1">
          <mxGeometry relative="1" as="geometry" />
        </mxCell>
        <mxCell id="1ea317790d2ca983-10" value="Buenas noches" style="ellipse;whiteSpace=wrap;html=1;rounded=0;shadow=1;comic=0;labelBackgroundColor=none;strokeWidth=1;fontFamily=Verdana;fontSize=12;align=center;" parent="1" vertex="1">
          <mxGeometry x="130" y="190" width="75" height="50" as="geometry" />
        </mxCell>
        <mxCell id="1ea317790d2ca983-11" value="Cebolla" style="ellipse;whiteSpace=wrap;html=1;rounded=0;shadow=1;comic=0;labelBackgroundColor=none;strokeWidth=1;fontFamily=Verdana;fontSize=12;align=center;" parent="1" vertex="1">
          <mxGeometry x="130" y="310" width="75" height="50" as="geometry" />
        </mxCell>
        <mxCell id="GBVCMYr4aBEyGNXLxbhj-2" value="Pan Crudo" style="ellipse;whiteSpace=wrap;html=1;rounded=0;shadow=1;comic=0;labelBackgroundColor=none;strokeWidth=1;fontFamily=Verdana;fontSize=12;align=center;" vertex="1" parent="1">
          <mxGeometry x="295" y="310" width="75" height="50" as="geometry" />
        </mxCell>
        <mxCell id="GBVCMYr4aBEyGNXLxbhj-4" value="2" style="edgeStyle=none;rounded=1;html=1;labelBackgroundColor=none;startArrow=none;startFill=0;startSize=5;endArrow=classicThin;endFill=1;endSize=5;jettySize=auto;orthogonalLoop=1;strokeColor=#B3B3B3;strokeWidth=1;fontFamily=Verdana;fontSize=12;exitX=1;exitY=0.5;exitDx=0;exitDy=0;entryX=0;entryY=0.5;entryDx=0;entryDy=0;" edge="1" parent="1" source="1ea317790d2ca983-11" target="GBVCMYr4aBEyGNXLxbhj-2">
          <mxGeometry relative="1" as="geometry">
            <mxPoint x="790" y="200" as="sourcePoint" />
            <mxPoint x="790" y="260" as="targetPoint" />
          </mxGeometry>
        </mxCell>
        <mxCell id="GBVCMYr4aBEyGNXLxbhj-5" value="Loma Seca" style="ellipse;whiteSpace=wrap;html=1;rounded=0;shadow=1;comic=0;labelBackgroundColor=none;strokeWidth=1;fontFamily=Verdana;fontSize=12;align=center;" vertex="1" parent="1">
          <mxGeometry x="635" y="130" width="75" height="50" as="geometry" />
        </mxCell>
        <mxCell id="GBVCMYr4aBEyGNXLxbhj-6" value="Silla" style="ellipse;whiteSpace=wrap;html=1;rounded=0;shadow=1;comic=0;labelBackgroundColor=none;strokeWidth=1;fontFamily=Verdana;fontSize=12;align=center;" vertex="1" parent="1">
          <mxGeometry x="90" y="10" width="75" height="50" as="geometry" />
        </mxCell>
        <mxCell id="GBVCMYr4aBEyGNXLxbhj-7" value="Torralta" style="ellipse;whiteSpace=wrap;html=1;rounded=0;shadow=1;comic=0;labelBackgroundColor=none;strokeWidth=1;fontFamily=Verdana;fontSize=12;align=center;" vertex="1" parent="1">
          <mxGeometry x="220" y="-90" width="75" height="50" as="geometry" />
        </mxCell>
        <mxCell id="GBVCMYr4aBEyGNXLxbhj-8" value="Los Infiernos" style="ellipse;whiteSpace=wrap;html=1;rounded=0;shadow=1;comic=0;labelBackgroundColor=none;strokeWidth=1;fontFamily=Verdana;fontSize=12;align=center;" vertex="1" parent="1">
          <mxGeometry x="800" y="170" width="75" height="50" as="geometry" />
        </mxCell>
        <mxCell id="GBVCMYr4aBEyGNXLxbhj-9" value="7" style="edgeStyle=none;rounded=1;html=1;labelBackgroundColor=none;startArrow=none;startFill=0;startSize=5;endArrow=classicThin;endFill=1;endSize=5;jettySize=auto;orthogonalLoop=1;strokeColor=#B3B3B3;strokeWidth=1;fontFamily=Verdana;fontSize=12;exitX=1;exitY=0.5;exitDx=0;exitDy=0;entryX=0;entryY=0;entryDx=0;entryDy=0;" edge="1" parent="1" source="1ea317790d2ca983-1" target="GBVCMYr4aBEyGNXLxbhj-5">
          <mxGeometry relative="1" as="geometry">
            <mxPoint x="435" y="385" as="sourcePoint" />
            <mxPoint x="486" y="303" as="targetPoint" />
          </mxGeometry>
        </mxCell>
        <mxCell id="GBVCMYr4aBEyGNXLxbhj-10" value="4" style="edgeStyle=none;rounded=1;html=1;labelBackgroundColor=none;startArrow=none;startFill=0;startSize=5;endArrow=classicThin;endFill=1;endSize=5;jettySize=auto;orthogonalLoop=1;strokeColor=#B3B3B3;strokeWidth=1;fontFamily=Verdana;fontSize=12;exitX=1;exitY=0;exitDx=0;exitDy=0;entryX=0;entryY=1;entryDx=0;entryDy=0;" edge="1" parent="1" source="GBVCMYr4aBEyGNXLxbhj-6" target="GBVCMYr4aBEyGNXLxbhj-7">
          <mxGeometry relative="1" as="geometry">
            <mxPoint x="740" y="180" as="sourcePoint" />
            <mxPoint x="847" y="85" as="targetPoint" />
          </mxGeometry>
        </mxCell>
        <mxCell id="GBVCMYr4aBEyGNXLxbhj-11" value="5" style="edgeStyle=none;rounded=1;html=1;labelBackgroundColor=none;startArrow=none;startFill=0;startSize=5;endArrow=classicThin;endFill=1;endSize=5;jettySize=auto;orthogonalLoop=1;strokeColor=#B3B3B3;strokeWidth=1;fontFamily=Verdana;fontSize=12;exitX=0;exitY=0;exitDx=0;exitDy=0;entryX=1;entryY=1;entryDx=0;entryDy=0;" edge="1" parent="1" source="1ea317790d2ca983-9" target="GBVCMYr4aBEyGNXLxbhj-6">
          <mxGeometry relative="1" as="geometry">
            <mxPoint x="770" y="250" as="sourcePoint" />
            <mxPoint x="570" y="250" as="targetPoint" />
          </mxGeometry>
        </mxCell>
        <mxCell id="GBVCMYr4aBEyGNXLxbhj-12" value="Pepino" style="ellipse;whiteSpace=wrap;html=1;rounded=0;shadow=1;comic=0;labelBackgroundColor=none;strokeWidth=1;fontFamily=Verdana;fontSize=12;align=center;" vertex="1" parent="1">
          <mxGeometry x="740" y="30" width="75" height="50" as="geometry" />
        </mxCell>
        <mxCell id="GBVCMYr4aBEyGNXLxbhj-13" value="3" style="edgeStyle=none;rounded=1;html=1;labelBackgroundColor=none;startArrow=none;startFill=0;startSize=5;endArrow=classicThin;endFill=1;endSize=5;jettySize=auto;orthogonalLoop=1;strokeColor=#B3B3B3;strokeWidth=1;fontFamily=Verdana;fontSize=12;exitX=1;exitY=0;exitDx=0;exitDy=0;entryX=0;entryY=1;entryDx=0;entryDy=0;" edge="1" parent="1" source="GBVCMYr4aBEyGNXLxbhj-5" target="GBVCMYr4aBEyGNXLxbhj-12">
          <mxGeometry relative="1" as="geometry">
            <mxPoint x="730" y="142" as="sourcePoint" />
            <mxPoint x="816" y="100" as="targetPoint" />
          </mxGeometry>
        </mxCell>
        <mxCell id="GBVCMYr4aBEyGNXLxbhj-14" value="2" style="edgeStyle=none;rounded=1;html=1;labelBackgroundColor=none;startArrow=none;startFill=0;startSize=5;endArrow=classicThin;endFill=1;endSize=5;jettySize=auto;orthogonalLoop=1;strokeColor=#B3B3B3;strokeWidth=1;fontFamily=Verdana;fontSize=12;exitX=1;exitY=0.5;exitDx=0;exitDy=0;entryX=0;entryY=0.5;entryDx=0;entryDy=0;" edge="1" parent="1" source="GBVCMYr4aBEyGNXLxbhj-5" target="GBVCMYr4aBEyGNXLxbhj-8">
          <mxGeometry relative="1" as="geometry">
            <mxPoint x="700" y="272" as="sourcePoint" />
            <mxPoint x="786" y="230" as="targetPoint" />
          </mxGeometry>
        </mxCell>
        <mxCell id="GBVCMYr4aBEyGNXLxbhj-15" value="El Cerrillo" style="ellipse;whiteSpace=wrap;html=1;rounded=0;shadow=1;comic=0;labelBackgroundColor=none;strokeWidth=1;fontFamily=Verdana;fontSize=12;align=center;" vertex="1" parent="1">
          <mxGeometry x="557.5" y="220" width="75" height="50" as="geometry" />
        </mxCell>
        <mxCell id="GBVCMYr4aBEyGNXLxbhj-16" value="MalCocinado" style="ellipse;whiteSpace=wrap;html=1;rounded=0;shadow=1;comic=0;labelBackgroundColor=none;strokeWidth=1;fontFamily=Verdana;fontSize=12;align=center;" vertex="1" parent="1">
          <mxGeometry x="555" y="320" width="80" height="60" as="geometry" />
        </mxCell>
        <mxCell id="GBVCMYr4aBEyGNXLxbhj-17" value="La Pera" style="ellipse;whiteSpace=wrap;html=1;rounded=0;shadow=1;comic=0;labelBackgroundColor=none;strokeWidth=1;fontFamily=Verdana;fontSize=12;align=center;" vertex="1" parent="1">
          <mxGeometry x="800" y="300" width="75" height="50" as="geometry" />
        </mxCell>
        <mxCell id="GBVCMYr4aBEyGNXLxbhj-18" value="Espera" style="ellipse;whiteSpace=wrap;html=1;rounded=0;shadow=1;comic=0;labelBackgroundColor=none;strokeWidth=1;fontFamily=Verdana;fontSize=12;align=center;" vertex="1" parent="1">
          <mxGeometry x="800" y="415" width="75" height="50" as="geometry" />
        </mxCell>
        <mxCell id="GBVCMYr4aBEyGNXLxbhj-19" value="3" style="edgeStyle=none;rounded=1;html=1;labelBackgroundColor=none;startArrow=none;startFill=0;startSize=5;endArrow=classicThin;endFill=1;endSize=5;jettySize=auto;orthogonalLoop=1;strokeColor=#B3B3B3;strokeWidth=1;fontFamily=Verdana;fontSize=12;exitX=0.5;exitY=1;exitDx=0;exitDy=0;entryX=0.5;entryY=0;entryDx=0;entryDy=0;" edge="1" parent="1" source="GBVCMYr4aBEyGNXLxbhj-8" target="GBVCMYr4aBEyGNXLxbhj-17">
          <mxGeometry relative="1" as="geometry">
            <mxPoint x="435" y="385" as="sourcePoint" />
            <mxPoint x="521" y="343" as="targetPoint" />
          </mxGeometry>
        </mxCell>
        <mxCell id="GBVCMYr4aBEyGNXLxbhj-22" value="3" style="edgeStyle=none;rounded=1;html=1;labelBackgroundColor=none;startArrow=none;startFill=0;startSize=5;endArrow=classicThin;endFill=1;endSize=5;jettySize=auto;orthogonalLoop=1;strokeColor=#B3B3B3;strokeWidth=1;fontFamily=Verdana;fontSize=12;exitX=0.5;exitY=1;exitDx=0;exitDy=0;entryX=0.5;entryY=0;entryDx=0;entryDy=0;" edge="1" parent="1" source="GBVCMYr4aBEyGNXLxbhj-17" target="GBVCMYr4aBEyGNXLxbhj-18">
          <mxGeometry relative="1" as="geometry">
            <mxPoint x="822.5" y="365" as="sourcePoint" />
            <mxPoint x="832.5" y="425" as="targetPoint" />
          </mxGeometry>
        </mxCell>
        <mxCell id="GBVCMYr4aBEyGNXLxbhj-23" value="5" style="edgeStyle=none;rounded=1;html=1;labelBackgroundColor=none;startArrow=none;startFill=0;startSize=5;endArrow=classicThin;endFill=1;endSize=5;jettySize=auto;orthogonalLoop=1;strokeColor=#B3B3B3;strokeWidth=1;fontFamily=Verdana;fontSize=12;exitX=0;exitY=1;exitDx=0;exitDy=0;entryX=0.5;entryY=0;entryDx=0;entryDy=0;" edge="1" parent="1" source="GBVCMYr4aBEyGNXLxbhj-5" target="GBVCMYr4aBEyGNXLxbhj-15">
          <mxGeometry relative="1" as="geometry">
            <mxPoint x="690" y="180" as="sourcePoint" />
            <mxPoint x="600" y="230" as="targetPoint" />
          </mxGeometry>
        </mxCell>
        <mxCell id="GBVCMYr4aBEyGNXLxbhj-24" value="6" style="edgeStyle=none;rounded=1;html=1;labelBackgroundColor=none;startArrow=none;startFill=0;startSize=5;endArrow=classicThin;endFill=1;endSize=5;jettySize=auto;orthogonalLoop=1;strokeColor=#B3B3B3;strokeWidth=1;fontFamily=Verdana;fontSize=12;exitX=0.5;exitY=1;exitDx=0;exitDy=0;entryX=0.5;entryY=0;entryDx=0;entryDy=0;" edge="1" parent="1" source="GBVCMYr4aBEyGNXLxbhj-15" target="GBVCMYr4aBEyGNXLxbhj-16">
          <mxGeometry relative="1" as="geometry">
            <mxPoint x="715" y="360" as="sourcePoint" />
            <mxPoint x="675" y="460" as="targetPoint" />
          </mxGeometry>
        </mxCell>
        <mxCell id="GBVCMYr4aBEyGNXLxbhj-25" value="Consuegra" style="ellipse;whiteSpace=wrap;html=1;rounded=0;shadow=1;comic=0;labelBackgroundColor=none;strokeWidth=1;fontFamily=Verdana;fontSize=12;align=center;" vertex="1" parent="1">
          <mxGeometry x="530" y="415" width="85" height="60" as="geometry" />
        </mxCell>
        <mxCell id="GBVCMYr4aBEyGNXLxbhj-26" value="Aceituna" style="ellipse;whiteSpace=wrap;html=1;rounded=0;shadow=1;comic=0;labelBackgroundColor=none;strokeWidth=1;fontFamily=Verdana;fontSize=12;align=center;" vertex="1" parent="1">
          <mxGeometry x="650" y="420" width="75" height="50" as="geometry" />
        </mxCell>
        <mxCell id="GBVCMYr4aBEyGNXLxbhj-27" value="1" style="edgeStyle=none;rounded=1;html=1;labelBackgroundColor=none;startArrow=none;startFill=0;startSize=5;endArrow=classicThin;endFill=1;endSize=5;jettySize=auto;orthogonalLoop=1;strokeColor=#B3B3B3;strokeWidth=1;fontFamily=Verdana;fontSize=12;exitX=0.344;exitY=0.985;exitDx=0;exitDy=0;entryX=0.5;entryY=0;entryDx=0;entryDy=0;exitPerimeter=0;" edge="1" parent="1" source="GBVCMYr4aBEyGNXLxbhj-16" target="GBVCMYr4aBEyGNXLxbhj-25">
          <mxGeometry relative="1" as="geometry">
            <mxPoint x="548" y="380" as="sourcePoint" />
            <mxPoint x="520" y="440" as="targetPoint" />
          </mxGeometry>
        </mxCell>
        <mxCell id="GBVCMYr4aBEyGNXLxbhj-28" value="2" style="edgeStyle=none;rounded=1;html=1;labelBackgroundColor=none;startArrow=none;startFill=0;startSize=5;endArrow=classicThin;endFill=1;endSize=5;jettySize=auto;orthogonalLoop=1;strokeColor=#B3B3B3;strokeWidth=1;fontFamily=Verdana;fontSize=12;exitX=1;exitY=1;exitDx=0;exitDy=0;entryX=0;entryY=0;entryDx=0;entryDy=0;" edge="1" parent="1" source="GBVCMYr4aBEyGNXLxbhj-16" target="GBVCMYr4aBEyGNXLxbhj-26">
          <mxGeometry relative="1" as="geometry">
            <mxPoint x="635" y="445" as="sourcePoint" />
            <mxPoint x="607" y="505" as="targetPoint" />
          </mxGeometry>
        </mxCell>
        <mxCell id="GBVCMYr4aBEyGNXLxbhj-30" value="Humilladero" style="ellipse;whiteSpace=wrap;html=1;rounded=0;shadow=1;comic=0;labelBackgroundColor=none;strokeWidth=1;fontFamily=Verdana;fontSize=12;align=center;" vertex="1" parent="1">
          <mxGeometry x="375" y="-90" width="85" height="50" as="geometry" />
        </mxCell>
        <mxCell id="GBVCMYr4aBEyGNXLxbhj-31" value="Villaviciosa" style="ellipse;whiteSpace=wrap;html=1;rounded=0;shadow=1;comic=0;labelBackgroundColor=none;strokeWidth=1;fontFamily=Verdana;fontSize=12;align=center;" vertex="1" parent="1">
          <mxGeometry x="220" y="-190" width="75" height="50" as="geometry" />
        </mxCell>
        <mxCell id="GBVCMYr4aBEyGNXLxbhj-32" value="8" style="edgeStyle=none;rounded=1;html=1;labelBackgroundColor=none;startArrow=none;startFill=0;startSize=5;endArrow=classicThin;endFill=1;endSize=5;jettySize=auto;orthogonalLoop=1;strokeColor=#B3B3B3;strokeWidth=1;fontFamily=Verdana;fontSize=12;exitX=0.5;exitY=0;exitDx=0;exitDy=0;entryX=0.5;entryY=1;entryDx=0;entryDy=0;" edge="1" parent="1" source="GBVCMYr4aBEyGNXLxbhj-7" target="GBVCMYr4aBEyGNXLxbhj-31">
          <mxGeometry relative="1" as="geometry">
            <mxPoint x="220" y="-106" as="sourcePoint" />
            <mxPoint x="297" y="-170" as="targetPoint" />
          </mxGeometry>
        </mxCell>
        <mxCell id="GBVCMYr4aBEyGNXLxbhj-33" value="9" style="edgeStyle=none;rounded=1;html=1;labelBackgroundColor=none;startArrow=none;startFill=0;startSize=5;endArrow=classicThin;endFill=1;endSize=5;jettySize=auto;orthogonalLoop=1;strokeColor=#B3B3B3;strokeWidth=1;fontFamily=Verdana;fontSize=12;exitX=1;exitY=0.5;exitDx=0;exitDy=0;entryX=0;entryY=0.5;entryDx=0;entryDy=0;" edge="1" parent="1" source="GBVCMYr4aBEyGNXLxbhj-7" target="GBVCMYr4aBEyGNXLxbhj-30">
          <mxGeometry relative="1" as="geometry">
            <mxPoint x="280" y="34" as="sourcePoint" />
            <mxPoint x="357" y="-30" as="targetPoint" />
          </mxGeometry>
        </mxCell>
        <mxCell id="GBVCMYr4aBEyGNXLxbhj-34" value="Hortijos" style="ellipse;whiteSpace=wrap;html=1;rounded=0;shadow=1;comic=0;labelBackgroundColor=none;strokeWidth=1;fontFamily=Verdana;fontSize=12;align=center;" vertex="1" parent="1">
          <mxGeometry x="550" y="-90" width="85" height="50" as="geometry" />
        </mxCell>
        <mxCell id="GBVCMYr4aBEyGNXLxbhj-35" value="5" style="edgeStyle=none;rounded=1;html=1;labelBackgroundColor=none;startArrow=none;startFill=0;startSize=5;endArrow=classicThin;endFill=1;endSize=5;jettySize=auto;orthogonalLoop=1;strokeColor=#B3B3B3;strokeWidth=1;fontFamily=Verdana;fontSize=12;exitX=1;exitY=0.5;exitDx=0;exitDy=0;entryX=0;entryY=0.5;entryDx=0;entryDy=0;" edge="1" parent="1" source="GBVCMYr4aBEyGNXLxbhj-30" target="GBVCMYr4aBEyGNXLxbhj-34">
          <mxGeometry relative="1" as="geometry">
            <mxPoint x="450" y="-10" as="sourcePoint" />
            <mxPoint x="530" y="-10" as="targetPoint" />
          </mxGeometry>
        </mxCell>
        <mxCell id="GBVCMYr4aBEyGNXLxbhj-36" value="Diosleguarde" style="ellipse;whiteSpace=wrap;html=1;rounded=0;shadow=1;comic=0;labelBackgroundColor=none;strokeWidth=1;fontFamily=Verdana;fontSize=12;align=center;" vertex="1" parent="1">
          <mxGeometry x="400" y="398" width="90" height="55" as="geometry" />
        </mxCell>
        <mxCell id="GBVCMYr4aBEyGNXLxbhj-37" value="Elciego" style="ellipse;whiteSpace=wrap;html=1;rounded=0;shadow=1;comic=0;labelBackgroundColor=none;strokeWidth=1;fontFamily=Verdana;fontSize=12;align=center;" vertex="1" parent="1">
          <mxGeometry x="310" y="470" width="75" height="50" as="geometry" />
        </mxCell>
        <mxCell id="GBVCMYr4aBEyGNXLxbhj-38" value="Melon" style="ellipse;whiteSpace=wrap;html=1;rounded=0;shadow=1;comic=0;labelBackgroundColor=none;strokeWidth=1;fontFamily=Verdana;fontSize=12;align=center;" vertex="1" parent="1">
          <mxGeometry x="205" y="540" width="75" height="50" as="geometry" />
        </mxCell>
        <mxCell id="GBVCMYr4aBEyGNXLxbhj-39" value="9" style="edgeStyle=none;rounded=1;html=1;labelBackgroundColor=none;startArrow=none;startFill=0;startSize=5;endArrow=classicThin;endFill=1;endSize=5;jettySize=auto;orthogonalLoop=1;strokeColor=#B3B3B3;strokeWidth=1;fontFamily=Verdana;fontSize=12;exitX=0;exitY=0.5;exitDx=0;exitDy=0;entryX=1;entryY=0;entryDx=0;entryDy=0;" edge="1" parent="1" source="GBVCMYr4aBEyGNXLxbhj-16" target="GBVCMYr4aBEyGNXLxbhj-36">
          <mxGeometry relative="1" as="geometry">
            <mxPoint x="520.5" y="320" as="sourcePoint" />
            <mxPoint x="469.5" y="367" as="targetPoint" />
          </mxGeometry>
        </mxCell>
        <mxCell id="GBVCMYr4aBEyGNXLxbhj-40" value="7" style="edgeStyle=none;rounded=1;html=1;labelBackgroundColor=none;startArrow=none;startFill=0;startSize=5;endArrow=classicThin;endFill=1;endSize=5;jettySize=auto;orthogonalLoop=1;strokeColor=#B3B3B3;strokeWidth=1;fontFamily=Verdana;fontSize=12;entryX=1;entryY=0;entryDx=0;entryDy=0;exitX=0;exitY=1;exitDx=0;exitDy=0;" edge="1" parent="1" source="GBVCMYr4aBEyGNXLxbhj-36" target="GBVCMYr4aBEyGNXLxbhj-37">
          <mxGeometry relative="1" as="geometry">
            <mxPoint x="403" y="390" as="sourcePoint" />
            <mxPoint x="352" y="437" as="targetPoint" />
          </mxGeometry>
        </mxCell>
        <mxCell id="GBVCMYr4aBEyGNXLxbhj-41" value="3" style="edgeStyle=none;rounded=1;html=1;labelBackgroundColor=none;startArrow=none;startFill=0;startSize=5;endArrow=classicThin;endFill=1;endSize=5;jettySize=auto;orthogonalLoop=1;strokeColor=#B3B3B3;strokeWidth=1;fontFamily=Verdana;fontSize=12;exitX=0;exitY=1;exitDx=0;exitDy=0;entryX=1;entryY=0;entryDx=0;entryDy=0;" edge="1" parent="1" source="GBVCMYr4aBEyGNXLxbhj-37" target="GBVCMYr4aBEyGNXLxbhj-38">
          <mxGeometry relative="1" as="geometry">
            <mxPoint x="315" y="463" as="sourcePoint" />
            <mxPoint x="264" y="510" as="targetPoint" />
          </mxGeometry>
        </mxCell>
      </root>
    </mxGraphModel>
  </diagram>
</mxfile>
